<?xml version="1.0" encoding="iso-8859-1"?>
<!-- Uploaded to: SVG Repo, www.svgrepo.com, Generator: SVG Repo Mixer Tools -->
<svg version="1.1" id="Layer_1" xmlns="http://www.w3.org/2000/svg" xmlns:xlink="http://www.w3.org/1999/xlink" 
	 viewBox="0 0 512 512" xml:space="preserve">
<polygon style="fill:#9B9B9B;" points="467.277,386.971 467.277,80.833 256,80.833 235.085,407.885 "/>
<g>
	<polygon style="fill:#C1C1C1;" points="256,80.833 44.723,80.833 44.723,386.971 256,407.885 	"/>
	<path style="fill:#C1C1C1;" d="M467.277,386.971H256l-20.915,20.915L256,431.167h234.875c11.667,0,21.125-9.457,21.125-21.124
		v-23.071h-44.723V386.971z"/>
</g>
<path style="fill:#DFDFDF;" d="M44.723,386.971H0v23.071c0,11.666,9.457,21.124,21.125,21.124H256v-44.195H44.723z"/>
<polygon style="fill:#F7C02D;" points="424.16,123.951 256,123.951 224.628,233.902 256,343.853 424.16,343.853 "/>
<rect x="87.845" y="123.946" style="fill:#FBE27B;" width="168.155" height="219.899"/>
</svg>